<svg xmlns="http://www.w3.org/2000/svg" viewBox="0 0 184 54.88"><defs><style>.cls-1{fill:#231815;}.cls-2{fill:#0080cb;}.cls-3{fill:#e50012;}</style></defs><title>pic_logo</title><g id="レイヤー_2" data-name="レイヤー 2"><g id="ヘッダー"><path class="cls-1" d="M160.31,38.08H171.4a.71.71,0,0,1,.34.08.46.46,0,0,1,.13.55A5.59,5.59,0,0,1,167,41.64H153.81v3.17h16.39a3.38,3.38,0,0,1,1,.16,3.34,3.34,0,0,1-1.46,6.43H157.93v3.4h12.68a6.72,6.72,0,0,0,5.7-9.19.59.59,0,0,1,.26-.73,1.18,1.18,0,0,1,.36-.06H184V41.57h-8.5a.5.5,0,0,1-.42-.3.48.48,0,0,1,.1-.5,9.82,9.82,0,0,0,1.6-2.38,2.8,2.8,0,0,0-.4-2.55,2.86,2.86,0,0,0-2.28-1.18H160.31Z"/><path class="cls-1" d="M173.85,28.89a.94.94,0,0,1-.79.39h-2.62a.81.81,0,0,1-.79-.47l-2.13-4.44h-4.37l2.06,4.13a.52.52,0,0,1,0,.52.55.55,0,0,1-.46.26h-1.9a1.29,1.29,0,0,1-1-.71l-2.06-4.2h-4.2l2.06,4.28a.41.41,0,0,1,0,.33.47.47,0,0,1-.25.22,4.53,4.53,0,0,0-3.52,3.55,2.94,2.94,0,0,0,0,.56V39.5h4.12V34.35a1.76,1.76,0,0,1,.94-1.6.91.91,0,0,1,.35-.07H178.8a1.39,1.39,0,0,1,.53.1A1.36,1.36,0,0,1,180,34h0V39.5h4V33.09a4.32,4.32,0,0,0-2.46-3.49,7.21,7.21,0,0,0-2.38-.39.35.35,0,0,1-.34-.18.33.33,0,0,1,0-.37l3.09-4.28h-4.76Z"/><path class="cls-1" d="M131.54,40.45l-1,2.14-1.1,1.67L128,45.92l-1.67,1.43-1.58,1.11-1.58.87-2.37.79-.72.15-.24.16v4.44l2.94-.64,2.84-1.19,1.36-.72,1.35-.87,1.34-1,1.27-1.18,2.22-2.62,1.35-2.06.23-.16H135l.47.48.71,1.19.87,1.19,1,1.19,2.13,2.06,2.23,1.58,1,.64,2.14.94,2.06.71,2.38.48V50.6L148,50l-1.75-.71-2.46-1.43-1.59-1.35-1.5-1.58-1.1-1.51L138.75,42l-.63-1.43-.47-1.34a28.77,28.77,0,0,1-.56-3.73H150V32H137.08V24.37h-4.43V32H119.73v3.48h12.94l-.58,3.25Z"/><path class="cls-1" d="M97.52,51.47H91.91a2.07,2.07,0,0,1-2.06-2.06V32.05H85.58V49.47a5.24,5.24,0,0,0,5.24,5.25h19.79a5.25,5.25,0,0,0,5.25-5.25V32h-4V49.41a2.06,2.06,0,0,1-2.05,2.06h-5.7A1.13,1.13,0,0,1,103,50.35v-26H98.65v26a1.12,1.12,0,0,1-1.12,1.13"/><path class="cls-1" d="M79.78,54.72a2.05,2.05,0,0,0,2-2.4l-2.09-12.5H75.27L77,50.16a1.17,1.17,0,0,1-.25.91,1.14,1.14,0,0,1-.86.4H68.32a.9.9,0,0,1-.71-.34.92.92,0,0,1-.21-.76l1.94-11.59h-4.2L62.84,52.31a2.06,2.06,0,0,0,2,2.4Z"/><path class="cls-1" d="M79.47,33.47l-1.5-9h-4.2l.31,2.21,1.35,7.93.23.78a3.52,3.52,0,0,0,2.7,2.36l.27,0h3.22V34.35H80.51a1,1,0,0,1-1-.88"/><path class="cls-1" d="M66.79,24.45l-1.5,8.86A1.24,1.24,0,0,1,64,34.43h-.81v3.34h2.52a3.44,3.44,0,0,0,.56-.08,5.17,5.17,0,0,0,1.3-.5A3.11,3.11,0,0,0,69.1,35.3l.39-1.83,1.5-9Z"/><path class="cls-1" d="M52.93,42.43a.39.39,0,0,1,.3-.17.37.37,0,0,1,.32.11.54.54,0,0,1,.1.28V54.72h4.28V42.43a.31.31,0,0,1,.14-.26.3.3,0,0,1,.29,0l0,0a29.81,29.81,0,0,0,2.71,2.62,5.09,5.09,0,0,0,1.25.71V40.37a4.66,4.66,0,0,1-1.26-.79,14.68,14.68,0,0,1-3.27-4H62.2V32H57.93V24.37H53.65v7.69H49v3.48h4.68l-4.52,6v5.77Z"/><path class="cls-2" d="M40.89,45.36V35.22H21.4V52a1,1,0,0,1-2,0V35.22H0V45.36a9.36,9.36,0,0,0,9.36,9.36H31.53a9.36,9.36,0,0,0,9.36-9.36"/><path class="cls-2" d="M19.42,33.25V22.87a9.37,9.37,0,0,0-9.36-9.36H0V33.25Z"/><path class="cls-2" d="M30.75,13.51a9.36,9.36,0,0,0-9.36,9.36V33.25H40.89V13.51Z"/><path class="cls-3" d="M27.16,6.72a6.72,6.72,0,1,0-6.72,6.71,6.71,6.71,0,0,0,6.72-6.71"/></g></g></svg>